<svg width="24" height="24" viewBox="0 0 24 24" fill="none" xmlns="http://www.w3.org/2000/svg">
    <path d="M3 5V7C3 7.55 3.45 8 4 8H18C18.55 8 19 7.55 19 7V5C19 4.45 18.55 4 18 4H4C3.45 4 3 4.45 3 5Z" fill="#4E5867"/>
    <path d="M4 11V13C4 13.55 4.45 14 5 14H19C19.55 14 20 13.55 20 13V11C20 10.45 19.55 10 19 10H5C4.45 10 4 10.45 4 11Z" fill="#4E5867"/>
    <path d="M5 17V19C5 19.55 5.45 20 6 20H20C20.55 20 21 19.55 21 19V17C21 16.45 20.55 16 20 16H6C5.45 16 5 16.45 5 17Z" fill="#4E5867"/>
</svg>
