<svg width="108" height="108" viewBox="0 0 108 108" fill="none" xmlns="http://www.w3.org/2000/svg">
    <rect width="108" height="108" rx="54" fill="#EBEEF0"/>
    <path d="M75.9395 35.8337H42.6214C36.034 35.8337 37.8715 30.373 31.3882 30.373H19.2882C18.6782 30.3821 18.0962 30.6301 17.6681 31.0634C17.2399 31.4966 16.9999 32.0805 17 32.6886V81.6273H78.2624V38.1148C78.2625 37.8123 78.2022 37.5128 78.085 37.2338C77.9678 36.9548 77.7962 36.7017 77.58 36.4895C77.3638 36.2772 77.1075 36.1099 76.8258 35.9973C76.5442 35.8847 76.2429 35.8291 75.9395 35.8337Z" fill="#D7DAE1"/>
    <path d="M17 79.1752C17 80.5297 18.098 81.6278 19.4526 81.6278H58.1883L33.6417 44.4399C29.0927 44.7327 24.7402 46.396 21.1604 49.2094C19.5903 50.4621 18.1916 51.9145 17 53.5295L17 79.1752Z" fill="#B2B6C1"/>
    <path d="M78.4702 81.1635C78.3438 81.4459 78.0632 81.6278 77.7538 81.6278H18.2105C17.6418 81.6278 17.2619 81.0418 17.494 80.5227L33.191 45.4077C33.3222 45.1223 33.5319 44.8798 33.7958 44.7085C34.0597 44.5372 34.367 44.4441 34.6819 44.4399H92.3386C92.614 44.4404 92.8851 44.509 93.1274 44.6396C93.3697 44.7702 93.5757 44.9587 93.7269 45.1882C93.8781 45.4178 93.9697 45.6811 93.9937 45.9546C94.0176 46.2282 93.9731 46.5034 93.8641 46.7555L78.4702 81.1635Z" fill="white"/>
</svg>
